<svg t="1662200107842" class="icon" viewBox="0 0 1025 1024" version="1.1" xmlns="http://www.w3.org/2000/svg" p-id="2424" width="200" height="200"><path d="M128.927147 938.666667c93.866667 0 170.666667-76.8 170.666666-170.666667 0 93.866667 76.8 170.666667 170.666667 170.666667h42.666667V426.666667L43.593813 597.333333l85.333334 341.333334zM427.593813 85.333333h170.666667v170.666667h-170.666667z" opacity=".16" p-id="2425" style="user-select: auto;"></path><path d="M982.26048 896h-29.866667L1024.927147 608c4.266667-21.333333-6.4-42.666667-27.733334-51.2L854.26048 505.6V256c0-23.466667-19.2-42.666667-42.666667-42.666667h-170.666666V85.333333c0-23.466667-19.2-42.666667-42.666667-42.666666h-170.666667c-23.466667 0-42.666667 19.2-42.666666 42.666666v128h-170.666667c-23.466667 0-42.666667 19.2-42.666667 42.666667v249.6l-142.933333 51.2c-21.333333 8.533333-32 29.866667-27.733333 51.2L73.46048 896H43.593813c-23.466667 0-42.666667 19.2-42.666666 42.666667s19.2 42.666667 42.666666 42.666666h87.466667c68.266667 0 130.133333-34.133333 168.533333-85.333333 38.4 51.2 100.266667 85.333333 170.666667 85.333333h85.333333c70.4 0 132.266667-34.133333 170.666667-85.333333 38.4 51.2 100.266667 85.333333 170.666667 85.333333h85.333333c23.466667 0 42.666667-19.2 42.666667-42.666666s-19.2-42.666667-42.666667-42.666667zM470.26048 128h85.333333v85.333333h-85.333333V128z m-213.333333 170.666667h512v174.933333l-241.066667-87.466667h-4.266667-19.2H497.993813L256.927147 473.6V298.666667z m512 469.333333c0-23.466667-19.2-42.666667-42.666667-42.666667s-42.666667 19.2-42.666667 42.666667c0 70.4-57.6 125.866667-128 125.866667h-85.333333c-70.4 0-128-57.6-128-128 0-23.466667-19.2-42.666667-42.666667-42.666667s-42.666667 19.2-42.666666 42.666667c0 59.733333-40.533333 108.8-96 123.733333L94.793813 625.066667 470.26048 488.533333v277.333334c0 23.466667 19.2 42.666667 42.666667 42.666666s42.666667-19.2 42.666666-42.666666v-277.333334l375.466667 136.533334-66.133333 266.666666c-55.466667-14.933333-96-64-96-123.733333z" p-id="2426" style="user-select: auto;"></path></svg>